<svg xmlns="http://www.w3.org/2000/svg" viewBox="0 0 300.29 39.74"><defs><style>.cls-1{fill:#232323;}</style></defs><g id="Layer_2" data-name="Layer 2"><g id="Layer_1-2" data-name="Layer 1"><path class="cls-1" d="M46.2,25.59H35.41v4.13a.37.37,0,0,1-.42.44H20.45a.66.66,0,0,1-.74-.72l0-19a.65.65,0,0,1,.74-.71H35c.29,0,.43.14.41.44l0,4.13h10.8l0-8.87a5.13,5.13,0,0,0-1.54-3.74A5.09,5.09,0,0,0,40.89.1H0l8.9,9L9,30.71a8.6,8.6,0,0,0,2.6,6.41A8.75,8.75,0,0,0,18,39.74H41a5.28,5.28,0,0,0,5.29-5.29Z"/><path class="cls-1" d="M300.22,9.13a8.83,8.83,0,0,0-2.62-6.42A8.69,8.69,0,0,0,291.19.1H263l.18,9.53.06,30.11H274l0-15.81h15.47l0,15.81h10.79ZM274,15.9l0-4.85a1.22,1.22,0,0,1,1.39-1.37h12.72a1.19,1.19,0,0,1,1.36,1.37l0,4.85Z"/><path class="cls-1" d="M90.3,9.68h25.06a.6.6,0,0,1,.69.71l0,6.5c0,.48-.21.71-.69.71h-25v7.53l0,14.61h10.79l0-13H107l10.74,13h12.39l-11.79-13a7.93,7.93,0,0,0,6.36-2.67,9.1,9.1,0,0,0,2.16-6.36l0-8.58a8.75,8.75,0,0,0-2.61-6.39A8.67,8.67,0,0,0,117.83.1H90.3Z"/><path class="cls-1" d="M217.42,9.68h25.06a.6.6,0,0,1,.69.71l0,6.5c0,.48-.21.71-.69.71H217.44l0,7.53,0,14.61h10.79l0-13h5.91l10.74,13h12.39l-11.79-13a7.93,7.93,0,0,0,6.36-2.67A9.1,9.1,0,0,0,254,17.71l0-8.58a8.75,8.75,0,0,0-2.61-6.39A8.67,8.67,0,0,0,245,.1H217.42Z"/><polygon class="cls-1" points="84.96 39.74 84.95 30.16 62.7 30.16 62.7 24.64 62.7 24.64 62.7 23.94 82.46 23.94 82.44 15.9 69.62 15.9 62.7 15.9 62.7 9.68 69.62 9.68 84.91 9.68 84.9 0.1 59.89 0.1 51.86 0.1 51.79 0.1 51.88 9.68 51.89 9.68 51.9 24.64 51.9 24.64 51.93 39.74 84.96 39.74"/><polygon class="cls-1" points="168.58 39.74 168.57 30.16 146.33 30.16 146.32 24.64 146.33 24.64 146.33 23.94 166.08 23.94 166.07 15.9 153.24 15.9 146.33 15.9 146.33 9.68 153.24 9.68 168.53 9.68 168.52 0.1 143.51 0.1 135.49 0.1 135.49 0.1 135.5 9.68 135.51 9.68 135.53 24.64 135.53 24.64 135.55 39.74 168.58 39.74"/><path class="cls-1" d="M211.67,27.88a16.31,16.31,0,0,0-1.23-5.53A9.62,9.62,0,0,0,207,18a5.82,5.82,0,0,0,1.41-2.32,13,13,0,0,0,.78-3.41,19,19,0,0,0,0-3.77,10.68,10.68,0,0,0-.81-3.38,7.86,7.86,0,0,0-3.21-3.72A9.45,9.45,0,0,0,200.13,0H174.31l0,9.52,0,14.83,0,15.29h29.46a6.23,6.23,0,0,0,4.58-1.77A10.17,10.17,0,0,0,211,33.5,16.11,16.11,0,0,0,211.67,27.88ZM185.09,9.52h10.73a2.62,2.62,0,0,1,2.57,1.76,2.38,2.38,0,0,1,.23,1.05v.77a2.7,2.7,0,0,1-.8,2,2.64,2.64,0,0,1-2,.83H185.09Zm15.37,17.79a2.75,2.75,0,0,1-2.73,2.75H185.11V23.62h12.62a2.49,2.49,0,0,1,2.49,1.59,3.28,3.28,0,0,1,.25,1.21Z"/></g></g></svg>